<?xml version="1.0" standalone="no"?>
<!DOCTYPE svg PUBLIC "-//W3C//DTD SVG 20010904//EN"
 "http://www.w3.org/TR/2001/REC-SVG-20010904/DTD/svg10.dtd">
<svg version="1.0" xmlns="http://www.w3.org/2000/svg"
 width="900.000000pt" height="900.000000pt" viewBox="0 0 900.000000 900.000000"
 preserveAspectRatio="xMidYMid meet">
<metadata>
Created by potrace 1.10, written by Peter Selinger 2001-2011
</metadata>
<g transform="translate(0.000000,900.000000) scale(0.100000,-0.100000)"
fill="#000000" stroke="none">
<path d="M5234 8712 c-116 -47 -262 -136 -356 -216 -216 -185 -456 -463 -569
-656 -24 -41 -61 -99 -82 -128 -21 -29 -50 -76 -64 -105 -14 -29 -41 -73 -59
-100 -19 -26 -34 -51 -34 -57 0 -13 -34 -30 -62 -30 -13 0 -51 7 -83 16 -142
38 -364 84 -410 84 -40 0 -171 24 -285 52 -46 11 -123 22 -170 25 -47 2 -110
10 -140 18 -30 7 -73 18 -95 24 -22 5 -80 15 -130 21 -49 6 -121 20 -160 31
-38 10 -86 19 -106 19 -20 0 -67 7 -105 14 -38 8 -109 22 -159 32 -49 9 -96
21 -103 26 -14 12 -113 3 -141 -12 -23 -12 -38 -67 -47 -170 -5 -58 -12 -92
-25 -108 -23 -30 -34 -103 -21 -141 13 -37 -10 -325 -33 -421 -9 -36 -20 -135
-26 -220 -5 -85 -14 -186 -20 -225 -6 -38 -14 -95 -18 -125 -3 -30 -10 -60
-13 -66 -8 -12 -18 -111 -22 -209 -2 -33 -6 -73 -10 -90 -3 -16 -10 -61 -16
-100 -5 -38 -19 -131 -30 -205 -12 -74 -25 -180 -30 -235 -5 -55 -14 -122 -20
-150 -10 -47 -29 -194 -64 -505 -9 -74 -23 -171 -31 -215 -8 -44 -15 -96 -15
-116 0 -20 -4 -49 -9 -65 -5 -16 -14 -83 -21 -149 -6 -66 -18 -154 -25 -195
-8 -41 -17 -111 -20 -155 -4 -44 -13 -111 -21 -150 -7 -38 -18 -113 -23 -165
-5 -52 -16 -142 -24 -200 -9 -58 -20 -152 -26 -210 -15 -144 -38 -306 -51
-360 -6 -25 -16 -88 -21 -140 -5 -52 -13 -122 -18 -155 -5 -33 -14 -105 -20
-160 -7 -55 -17 -122 -23 -150 -5 -27 -14 -88 -18 -135 -5 -47 -12 -118 -16
-158 -7 -75 -4 -95 37 -277 11 -49 24 -108 29 -130 21 -95 42 -183 55 -230 7
-27 26 -115 40 -195 36 -197 64 -319 81 -358 8 -18 14 -49 14 -70 0 -20 9 -68
20 -107 11 -38 23 -99 26 -135 7 -79 22 -140 33 -140 24 0 29 44 36 289 5 189
11 273 21 297 9 21 14 74 15 146 1 103 6 207 23 448 3 47 8 138 11 203 3 65
10 128 16 139 7 13 13 83 14 167 2 80 8 227 14 326 7 99 14 243 16 320 4 180
13 292 24 313 4 9 6 95 4 191 -3 128 0 195 11 255 9 50 17 167 20 306 3 124
10 329 17 455 7 127 11 280 10 342 -2 61 2 119 7 130 6 10 15 133 22 273 6
140 15 284 21 320 5 36 11 142 13 235 2 94 9 190 15 215 17 73 44 505 41 665
0 37 6 71 15 89 11 21 14 42 9 73 -4 31 -2 50 9 67 13 19 14 30 5 54 -10 25
-8 35 9 63 26 41 21 84 -13 116 -26 24 -26 21 15 117 19 42 20 60 15 145 -3
53 -9 108 -14 123 -5 15 -5 42 0 60 5 18 11 64 14 102 3 37 10 74 16 82 12 13
8 140 -5 202 -9 38 9 88 36 102 27 15 146 -19 259 -72 36 -17 79 -36 95 -43
17 -6 74 -33 128 -58 53 -26 106 -47 117 -47 11 0 38 -11 60 -25 37 -23 85
-44 155 -66 17 -5 73 -28 125 -50 52 -23 104 -45 115 -49 11 -5 40 -17 65 -28
25 -11 61 -27 80 -35 19 -9 64 -25 100 -36 83 -26 117 -39 213 -85 44 -20 98
-41 120 -46 23 -5 66 -21 94 -35 29 -14 61 -25 71 -25 10 0 23 -5 30 -12 14
-14 16 -54 3 -63 -5 -3 -15 -22 -22 -43 -12 -39 -62 -153 -82 -187 -10 -18
-41 -77 -80 -150 -8 -16 -22 -46 -30 -65 -8 -19 -28 -64 -45 -100 -17 -36 -34
-72 -37 -80 -3 -8 -13 -28 -23 -45 -17 -28 -24 -30 -93 -36 -97 -8 -125 -20
-176 -76 -57 -62 -67 -101 -46 -177 13 -46 28 -70 68 -112 63 -64 99 -74 180
-48 69 21 96 42 128 96 22 39 24 54 24 166 0 130 11 171 59 237 13 17 27 41
33 55 6 14 15 32 20 40 4 8 25 49 45 90 45 93 81 157 132 235 21 33 49 82 62
110 27 58 49 85 70 85 8 0 37 -12 66 -26 28 -15 71 -32 96 -39 25 -7 101 -37
170 -68 69 -30 159 -68 200 -85 41 -17 125 -51 186 -76 62 -25 118 -46 125
-46 8 0 23 -7 33 -15 11 -8 28 -15 37 -15 9 0 43 -13 75 -29 33 -16 82 -36
109 -45 80 -27 221 -83 333 -133 101 -44 201 -83 333 -129 37 -12 75 -27 85
-33 31 -17 174 -81 182 -81 17 0 316 -117 347 -136 11 -6 36 -15 55 -19 19 -4
54 -17 77 -30 23 -13 66 -31 95 -40 29 -10 60 -23 68 -30 8 -7 42 -20 75 -30
82 -25 133 -51 139 -72 3 -10 8 -39 11 -64 l7 -46 -50 -36 c-43 -30 -53 -45
-68 -91 -16 -49 -16 -63 -4 -126 12 -62 18 -75 51 -103 20 -18 53 -41 73 -51
34 -18 37 -18 91 -1 105 32 144 84 146 192 2 113 -44 184 -133 207 -49 11 -52
86 -4 86 23 0 45 -8 131 -45 59 -26 251 -104 335 -135 129 -49 177 -68 275
-110 308 -132 368 -150 382 -114 6 16 -60 156 -109 229 -14 23 -42 70 -60 105
-19 36 -46 84 -61 107 -15 23 -49 85 -77 138 -28 53 -68 125 -90 159 -22 35
-40 68 -40 73 0 5 -25 47 -56 93 -60 90 -94 152 -94 171 0 21 -42 100 -56 106
-18 7 -64 87 -64 111 0 19 -63 116 -108 165 -18 18 -36 27 -57 27 -17 0 -37 6
-43 13 -7 6 -50 17 -95 23 -77 11 -122 19 -255 47 -77 15 -98 35 -106 99 -9
82 -22 147 -46 223 -12 39 -28 90 -35 115 -8 25 -18 59 -24 75 -36 101 -91
264 -97 290 -4 17 -16 50 -26 75 -11 25 -23 54 -28 65 -10 26 -104 212 -145
290 -40 76 -66 117 -137 216 -32 43 -58 85 -58 93 0 19 -83 98 -150 143 -161
107 -186 123 -196 123 -6 0 -22 9 -36 19 -17 14 -40 20 -74 20 -27 0 -69 4
-94 10 -25 6 -94 10 -155 10 -103 -1 -116 -3 -201 -37z m371 -307 c142 -25
237 -78 396 -222 46 -42 169 -201 169 -220 0 -3 11 -18 25 -35 14 -16 42 -64
63 -106 21 -42 54 -106 74 -142 20 -36 53 -110 73 -165 20 -55 54 -140 75
-190 65 -154 122 -357 104 -375 -16 -16 -278 21 -388 55 -27 8 -63 15 -79 15
-16 0 -46 4 -66 9 -20 5 -70 16 -111 25 -41 9 -107 22 -147 31 -40 8 -91 15
-115 15 -24 0 -61 5 -83 11 -22 5 -76 16 -120 24 -225 38 -274 47 -320 60 -27
7 -99 19 -160 25 -60 7 -126 18 -145 25 -19 7 -69 16 -111 19 -42 4 -89 14
-105 23 -16 8 -67 19 -114 23 -47 5 -130 15 -185 24 -55 9 -101 16 -102 16 -2
0 -3 10 -3 21 0 31 84 153 131 190 22 17 47 45 56 63 8 17 35 52 59 78 24 26
44 52 44 57 0 27 225 272 297 322 22 16 56 46 75 68 18 21 60 55 93 76 33 20
80 51 104 68 58 40 188 97 226 97 17 1 53 7 80 15 66 18 102 18 210 0z"/>
<path d="M3095 5224 c-98 -38 -122 -50 -156 -76 -20 -15 -40 -28 -44 -28 -7 0
-60 -56 -154 -163 -28 -31 -51 -65 -51 -76 0 -10 -9 -26 -19 -35 -11 -10 -25
-40 -31 -66 -7 -27 -18 -54 -26 -61 -8 -6 -14 -21 -14 -33 0 -12 -6 -30 -14
-41 -7 -11 -16 -38 -19 -60 -3 -22 -10 -76 -17 -120 -11 -77 -7 -165 10 -209
32 -86 49 -117 83 -159 58 -70 169 -111 225 -83 15 7 48 16 74 19 26 4 66 18
88 32 34 22 41 23 46 10 4 -8 -1 -26 -10 -40 -9 -13 -16 -36 -16 -51 0 -14 -7
-38 -15 -52 -13 -24 -26 -74 -42 -156 -4 -19 1 -42 12 -63 15 -27 24 -33 44
-31 24 3 27 9 38 78 18 110 30 169 47 225 25 81 102 286 130 342 14 29 26 65
26 79 0 25 -1 26 -57 22 -98 -8 -191 -37 -218 -70 -28 -34 -32 -66 -10 -75 9
-3 41 4 71 15 45 16 56 18 61 7 11 -30 -127 -174 -192 -200 -16 -7 -55 -15
-86 -19 -49 -5 -60 -3 -95 20 -23 15 -47 36 -54 48 -16 23 -32 110 -32 171 0
43 24 210 35 235 3 8 14 39 23 69 10 30 35 83 56 117 21 35 42 82 47 105 5 23
21 53 35 68 14 15 26 33 26 39 0 20 125 138 162 152 18 7 39 18 47 24 19 15
82 36 108 36 37 0 110 -37 132 -68 18 -25 21 -44 21 -122 0 -77 -4 -100 -25
-145 -27 -56 -148 -195 -170 -195 -7 0 -26 -7 -42 -15 -15 -8 -54 -22 -85 -31
-48 -13 -58 -19 -58 -37 0 -32 24 -62 65 -81 42 -20 53 -18 148 39 84 51 102
68 161 150 82 114 106 179 106 292 0 129 -51 224 -141 265 -52 23 -176 24
-234 2z"/>
<path d="M5190 5230 c-8 -5 -30 -10 -48 -10 -30 0 -113 -28 -152 -51 -8 -4
-40 -23 -70 -41 -30 -17 -57 -36 -58 -40 -2 -5 -32 -43 -66 -86 -35 -42 -66
-85 -69 -95 -4 -9 -17 -22 -30 -28 -24 -11 -39 -51 -68 -182 -10 -45 -10 -66
-1 -91 7 -18 12 -41 12 -51 0 -19 58 -117 73 -123 4 -2 20 -14 35 -27 15 -12
41 -26 59 -29 33 -8 73 -54 55 -65 -10 -6 -22 -167 -15 -188 14 -38 76 5 91
62 5 22 15 54 21 70 6 17 13 41 15 55 3 14 19 41 36 60 39 45 39 45 78 80 28
26 32 37 32 80 0 46 -2 50 -24 50 -14 0 -27 4 -30 9 -3 5 8 65 25 134 43 171
30 210 -51 155 -34 -24 -55 -68 -71 -148 -35 -179 -51 -220 -87 -220 -25 0
-104 44 -117 65 -17 27 -29 152 -15 160 5 3 10 22 10 42 0 64 140 251 213 284
12 5 42 21 67 34 25 13 58 24 74 24 15 1 50 9 76 18 48 17 48 17 115 -12 74
-31 93 -48 132 -115 33 -55 36 -74 37 -225 0 -113 -2 -125 -34 -210 -19 -49
-49 -115 -67 -145 -18 -30 -33 -59 -33 -64 0 -19 -105 -128 -168 -174 -112
-82 -146 -96 -305 -119 -23 -3 -43 -1 -50 6 -6 6 -19 11 -28 11 -20 0 -50 43
-59 85 -7 37 -37 44 -68 15 -28 -27 -28 -58 1 -101 40 -59 96 -82 218 -87 81
-3 115 0 140 11 19 8 47 18 62 21 16 4 47 19 70 34 23 14 54 33 69 42 79 45
298 284 298 325 0 7 11 20 25 29 19 12 25 25 25 50 0 19 8 58 19 88 32 92 41
145 41 251 -1 74 -5 107 -15 121 -8 11 -15 35 -15 53 0 39 -47 108 -98 143
-78 54 -265 90 -312 60z"/>
<path d="M7542 5064 c-12 -8 -22 -23 -22 -33 0 -9 -6 -37 -14 -62 -8 -24 -17
-57 -20 -72 -8 -35 -59 -67 -108 -67 -46 0 -68 -8 -68 -26 0 -10 15 -14 59
-14 71 0 87 -14 73 -62 -6 -18 -18 -60 -28 -93 -9 -33 -20 -71 -25 -85 -4 -14
-17 -68 -29 -120 -13 -52 -29 -110 -36 -128 -8 -18 -14 -45 -14 -59 0 -15 -5
-41 -11 -58 -10 -26 -9 -36 6 -58 9 -15 26 -27 37 -27 31 0 82 35 123 85 41
50 55 50 55 1 0 -19 9 -45 21 -60 16 -21 29 -26 64 -26 24 0 47 5 50 10 5 8
65 15 65 7 0 -1 -9 -27 -21 -57 -11 -30 -24 -69 -29 -86 -12 -51 -63 -136 -87
-147 -42 -19 -65 21 -44 75 5 13 15 42 22 66 11 38 10 45 -4 60 -16 15 -19 15
-53 -3 -45 -24 -54 -47 -54 -134 0 -79 20 -114 70 -125 52 -10 128 13 171 51
38 35 99 141 99 173 0 10 7 23 15 30 8 7 15 26 15 42 0 16 6 41 13 56 26 52
99 338 123 483 7 41 -13 69 -50 69 -27 0 -42 -28 -62 -110 -7 -30 -18 -75 -23
-100 -25 -103 -101 -250 -137 -264 -9 -4 -23 -1 -30 5 -18 15 -18 89 0 131 8
18 22 62 31 98 10 36 24 82 31 103 23 61 18 102 -11 115 -14 7 -32 12 -40 12
-20 0 -55 -72 -55 -112 0 -18 -7 -42 -15 -52 -8 -11 -15 -30 -15 -43 0 -13
-12 -36 -27 -51 -29 -29 -86 -109 -96 -136 -4 -9 -11 -16 -17 -16 -15 0 -12
102 4 125 7 11 16 38 18 60 3 22 10 54 16 70 14 38 47 149 78 262 1 6 29 14
61 18 64 7 82 13 97 38 15 23 6 27 -57 30 -31 2 -60 6 -63 10 -4 4 0 46 8 93
15 83 15 87 -3 105 -23 23 -28 23 -57 3z"/>
<path d="M3654 4747 c-3 -8 0 -26 6 -42 6 -15 13 -61 17 -102 6 -78 19 -97 48
-73 12 10 15 37 15 121 l0 109 -40 0 c-25 0 -43 -5 -46 -13z"/>
<path d="M5901 4648 c-4 -13 -13 -39 -19 -58 -5 -19 -17 -58 -26 -86 -9 -29
-16 -60 -16 -70 0 -21 -29 -100 -55 -151 -26 -53 -72 -95 -97 -91 -22 3 -23 7
-20 65 2 34 13 86 24 115 11 29 23 69 27 88 4 19 12 44 18 55 11 19 18 72 14
107 -1 11 -14 18 -42 23 -54 9 -69 -6 -78 -81 -5 -33 -18 -81 -30 -109 -12
-27 -25 -72 -28 -100 -3 -27 -12 -60 -19 -72 -21 -33 -18 -112 6 -150 17 -29
25 -33 64 -33 48 0 96 -29 96 -58 0 -9 -9 -30 -20 -47 -11 -16 -20 -38 -20
-49 0 -10 -12 -40 -27 -67 -27 -48 -52 -67 -73 -54 -15 9 -12 70 6 125 9 27
14 57 12 67 -5 28 -44 27 -83 -3 l-35 -26 0 -87 c0 -81 2 -89 26 -112 55 -51
185 -19 242 60 38 52 105 215 121 292 4 19 12 42 16 49 5 8 12 32 16 55 3 22
14 67 24 100 21 73 27 102 61 266 10 48 -68 82 -85 37z"/>
<path d="M7117 4651 c-74 -35 -118 -131 -91 -197 13 -32 13 -35 -3 -40 -10 -3
-29 -10 -43 -14 -14 -5 -36 -11 -50 -14 -18 -4 -31 -18 -43 -45 -19 -43 -77
-120 -77 -102 0 6 10 44 21 84 12 39 24 90 26 112 3 22 9 45 14 51 5 6 13 35
19 63 13 72 1 95 -48 88 -21 -2 -54 2 -74 10 -36 15 -41 14 -103 -16 -42 -20
-70 -41 -79 -59 -8 -15 -23 -36 -35 -46 -12 -11 -21 -30 -21 -43 0 -37 -35
-98 -64 -111 -15 -6 -26 -20 -26 -31 0 -10 -7 -24 -15 -31 -8 -7 -15 -16 -15
-21 0 -5 -14 -28 -31 -52 -30 -41 -64 -64 -73 -48 -5 7 31 142 76 283 15 49
18 71 10 80 -5 7 -12 26 -14 42 -2 17 -14 37 -29 49 -24 17 -31 18 -65 7 -22
-7 -52 -23 -68 -34 l-28 -21 -15 23 c-11 16 -25 22 -52 22 -36 0 -38 -2 -54
-53 -9 -30 -17 -65 -17 -80 0 -14 -6 -38 -14 -54 -22 -45 -46 -125 -46 -156 0
-15 -6 -38 -14 -50 -21 -33 -31 -114 -16 -132 13 -16 57 -20 76 -7 20 13 32
46 39 107 4 33 13 70 21 82 8 12 14 33 14 47 0 40 100 220 128 231 38 15 68
-39 37 -65 -9 -7 -15 -29 -15 -51 0 -21 -6 -53 -14 -71 -8 -18 -20 -60 -26
-93 -7 -33 -17 -75 -22 -92 -17 -60 12 -103 69 -103 39 0 93 37 152 102 18 21
37 38 41 38 4 0 10 -18 14 -39 12 -76 106 -127 160 -86 26 19 72 19 80 0 3 -8
12 -15 21 -15 25 0 91 46 116 81 21 30 23 31 36 13 7 -10 13 -26 13 -35 0 -34
52 -59 122 -59 75 1 114 19 157 73 56 71 53 138 -9 263 -22 43 -40 87 -40 97
0 32 30 78 48 75 18 -4 20 -24 11 -103 -3 -32 -1 -40 14 -43 44 -9 88 73 73
134 -17 68 -82 90 -159 55z m-354 -106 c-2 -41 -27 -145 -41 -172 -7 -12 -12
-34 -12 -50 0 -43 -41 -123 -67 -129 -43 -11 -53 1 -53 64 0 36 6 66 15 78 8
10 15 31 15 46 0 18 9 33 24 43 17 11 25 29 29 60 9 63 33 97 66 93 22 -3 26
-8 24 -33z m318 -187 c10 -13 18 -31 19 -40 0 -9 8 -30 17 -47 17 -29 17 -30
-13 -68 -43 -53 -75 -55 -104 -7 -22 34 -22 38 -7 64 10 16 17 35 17 43 0 20
32 77 43 77 5 0 17 -10 28 -22z"/>
<path d="M4100 4650 c-8 -5 -27 -10 -41 -10 -49 0 -99 -78 -99 -156 0 -49 -14
-84 -33 -84 -28 -1 -65 -46 -70 -85 -19 -139 -19 -142 -3 -173 24 -46 47 -55
128 -47 81 8 123 37 157 109 25 50 28 141 7 165 -31 36 -27 55 22 86 41 27 47
36 59 85 l12 55 -34 33 c-35 33 -75 41 -105 22z m46 -76 c12 -46 -41 -113 -68
-86 -10 10 -10 17 0 33 7 11 10 24 7 29 -9 14 18 50 37 50 11 0 20 -11 24 -26z
m-116 -239 c16 -27 19 -39 11 -54 -6 -11 -11 -31 -11 -45 0 -41 -21 -76 -45
-76 -41 0 -69 72 -46 118 4 9 16 34 26 55 23 46 37 47 65 2z"/>
<path d="M2843 3349 c-27 -10 -31 -45 -9 -75 13 -16 32 -20 153 -26 188 -10
519 -23 943 -37 195 -6 384 -16 420 -22 36 -6 211 -15 390 -20 179 -5 395 -13
480 -19 85 -5 254 -14 375 -20 121 -5 270 -14 330 -19 61 -5 302 -15 537 -21
235 -6 438 -14 451 -19 14 -5 179 -13 368 -17 189 -4 354 -10 365 -15 30 -11
50 8 58 52 5 27 2 42 -13 60 -18 22 -25 23 -192 29 -96 3 -179 8 -185 12 -6 4
-188 12 -405 19 -432 12 -663 23 -839 38 -63 5 -232 10 -375 10 -143 1 -276 5
-295 11 -19 5 -69 10 -110 10 -41 1 -138 8 -215 16 -77 8 -300 19 -495 24
-638 15 -870 21 -1180 25 -168 3 -357 7 -420 9 -63 2 -125 0 -137 -5z"/>
<path d="M3129 3113 c-8 -9 -16 -41 -19 -72 -5 -55 -5 -56 -35 -53 -40 5 -55
19 -55 54 0 39 -17 68 -39 68 -36 0 -42 -22 -39 -165 3 -119 5 -139 21 -149
27 -17 51 5 58 52 7 51 9 53 51 55 l33 2 5 -58 c7 -76 42 -102 74 -55 13 18
16 52 16 164 0 124 -2 143 -18 157 -23 21 -36 21 -53 0z"/>
<path d="M4024 3069 c-9 -16 -18 -273 -10 -305 7 -26 37 -32 54 -11 6 7 13 64
16 127 3 63 6 133 8 155 3 38 2 40 -29 43 -17 2 -35 -2 -39 -9z"/>
<path d="M3280 2998 c-15 -21 -24 -48 -26 -77 -1 -25 -5 -58 -9 -72 -5 -20 0
-33 21 -58 25 -30 32 -33 67 -28 22 3 51 0 64 -6 41 -18 53 10 53 119 0 85 -2
95 -26 123 -22 27 -33 31 -73 31 -42 0 -50 -4 -71 -32z m78 -60 c-6 -18 -28
-21 -28 -4 0 9 7 16 16 16 9 0 14 -5 12 -12z m-2 -96 c-18 -18 -31 -10 -23 12
4 10 13 13 22 9 15 -5 15 -7 1 -21z"/>
<path d="M5183 3018 c-6 -7 -11 -76 -12 -154 -2 -118 1 -143 14 -154 25 -21
37 1 40 77 2 37 7 99 13 138 12 75 4 105 -27 105 -10 0 -23 -6 -28 -12z"/>
<path d="M3563 3003 c-27 -3 -46 -10 -52 -21 -9 -18 -21 -269 -14 -289 3 -7
13 -13 23 -13 21 0 36 17 42 45 3 17 12 20 53 21 57 2 78 21 95 86 12 44 6 89
-18 130 -15 26 -53 50 -75 46 -7 -1 -31 -3 -54 -5z m65 -95 c24 -24 8 -78 -23
-78 -7 0 -17 12 -23 26 -20 43 15 83 46 52z"/>
<path d="M3774 2979 c-2 -3 -8 -71 -13 -150 -8 -119 -7 -146 4 -158 17 -17 38
-3 61 41 12 23 21 28 49 28 21 0 43 8 54 19 20 20 41 80 41 117 0 28 -25 87
-43 102 -14 12 -145 13 -153 1z m114 -111 c-2 -25 -8 -33 -23 -33 -20 0 -31
25 -21 51 3 8 15 14 26 14 18 0 21 -5 18 -32z"/>
<path d="M4230 2980 c-8 -5 -31 -10 -51 -10 -46 0 -49 -8 -49 -120 0 -96 5
-120 25 -120 28 0 45 31 45 84 0 59 21 99 41 79 6 -6 11 -34 11 -62 -2 -64 12
-101 37 -101 22 0 31 19 31 63 0 18 4 47 10 66 7 25 6 41 -7 65 -31 62 -58 79
-93 56z"/>
<path d="M5966 2981 c-3 -4 -8 -69 -12 -144 -5 -104 -4 -140 6 -152 29 -35 80
-2 80 54 0 28 2 30 18 22 11 -6 27 -30 36 -54 18 -48 45 -64 78 -46 16 9 18
24 18 148 0 121 -2 140 -18 155 -18 15 -20 15 -35 -2 -13 -14 -15 -30 -10 -70
5 -44 3 -52 -11 -52 -16 0 -20 7 -46 76 -6 18 -20 41 -31 53 -20 21 -63 28
-73 12z"/>
<path d="M4434 2948 c-16 -12 -31 -23 -33 -25 -2 -1 -8 -24 -12 -50 -11 -68 4
-113 46 -142 32 -22 37 -22 77 -10 56 18 70 46 64 129 -4 57 -8 68 -35 92 -38
34 -69 35 -107 6z m66 -149 c0 -12 -29 -24 -37 -16 -3 4 -3 13 0 21 6 16 37
11 37 -5z"/>
<path d="M4683 2963 c-41 -8 -64 -62 -47 -108 4 -8 19 -22 35 -31 16 -8 29
-21 29 -29 0 -19 -14 -19 -30 0 -20 24 -50 19 -50 -8 0 -51 83 -91 141 -69 33
13 42 52 33 139 -9 88 -41 118 -111 106z"/>
<path d="M4900 2953 c-56 -21 -68 -87 -24 -122 15 -12 33 -21 40 -21 8 0 14
-9 14 -20 0 -27 -33 -26 -51 1 -13 18 -16 19 -34 6 -17 -13 -18 -18 -6 -39 17
-33 67 -61 95 -54 37 9 76 45 76 70 0 13 -10 36 -22 51 -19 25 -20 28 -5 37
29 16 21 56 -15 78 -34 21 -43 22 -68 13z"/>
<path d="M5309 2923 c-8 -9 -14 -39 -14 -73 0 -32 -6 -64 -13 -73 -28 -33 28
-87 88 -87 62 0 79 29 77 128 -2 75 -5 86 -26 103 -29 24 -93 25 -112 2z m61
-154 c0 -5 -7 -9 -15 -9 -8 0 -15 7 -15 15 0 9 6 12 15 9 8 -4 15 -10 15 -15z"/>
<path d="M6918 2930 c-9 -6 -26 -25 -37 -44 -18 -28 -21 -50 -21 -130 l0 -97
35 -15 c50 -21 117 -18 148 6 26 20 26 22 24 141 -2 106 -5 123 -22 135 -21
16 -102 18 -127 4z m67 -69 c3 -5 1 -13 -5 -16 -15 -9 -43 3 -35 15 8 13 32
13 40 1z m0 -136 c0 -11 -7 -21 -16 -23 -18 -3 -33 23 -23 39 10 17 39 5 39
-16z"/>
<path d="M5648 2913 c-29 -34 -38 -59 -25 -72 9 -9 9 -16 -1 -31 -20 -33 -15
-88 11 -114 19 -19 32 -22 78 -21 31 1 61 5 67 9 8 4 9 38 6 109 -7 117 -19
137 -84 137 -23 0 -43 -7 -52 -17z m67 -142 c3 -5 1 -13 -5 -16 -15 -9 -43 3
-35 15 8 13 32 13 40 1z"/>
<path d="M6297 2882 c-46 -31 -56 -53 -57 -117 0 -73 17 -102 65 -111 41 -7
92 10 99 35 2 9 8 44 11 77 6 59 5 63 -25 98 -36 41 -53 44 -93 18z m45 -67
c0 -5 -5 -11 -11 -13 -6 -2 -11 4 -11 13 0 9 5 15 11 13 6 -2 11 -8 11 -13z
m8 -80 c0 -9 -9 -15 -25 -15 -24 0 -32 10 -18 23 12 13 43 7 43 -8z"/>
<path d="M6554 2855 c-17 -41 -41 -46 -50 -11 -7 29 -31 41 -50 25 -18 -15
-18 -89 0 -115 8 -11 18 -35 23 -54 5 -18 17 -38 27 -44 14 -9 22 -5 46 23
l28 33 17 -31 c20 -39 53 -39 71 -1 33 66 55 134 52 158 -4 34 -30 39 -57 11
l-20 -22 -30 32 c-16 17 -32 31 -36 31 -3 0 -13 -16 -21 -35z"/>
<path d="M7152 2844 c-16 -11 -22 -25 -22 -53 0 -22 -6 -44 -15 -51 -24 -20
-19 -66 10 -88 19 -15 40 -19 90 -19 74 0 67 -13 67 121 1 65 -3 82 -18 93
-24 18 -85 16 -112 -3z"/>
<path d="M7356 2810 c-24 -29 -25 -36 -22 -131 3 -87 6 -103 26 -124 27 -28
67 -39 100 -27 18 7 27 22 38 63 17 63 26 171 18 203 -7 28 -45 46 -96 46 -30
0 -43 -6 -64 -30z m90 -65 c7 -27 -10 -55 -32 -55 -10 0 -14 13 -14 40 0 33 3
40 20 40 13 0 22 -9 26 -25z"/>
<path d="M2810 2430 c-14 -14 -20 -33 -20 -63 0 -46 16 -69 55 -80 11 -4 247
-9 525 -12 278 -4 564 -11 635 -16 72 -5 353 -14 625 -19 272 -6 513 -15 535
-20 23 -6 374 -15 835 -20 437 -6 860 -15 940 -21 138 -11 266 -13 445 -8 44
1 118 -3 164 -10 96 -15 111 -8 115 50 4 72 14 69 -274 69 -171 0 -268 4 -287
11 -47 20 -242 31 -873 50 -173 5 -430 14 -570 19 -663 25 -845 31 -1245 41
-236 6 -473 10 -525 9 -329 -6 -922 12 -973 30 -46 16 -85 12 -107 -10z"/>
<path d="M7740 1979 c-81 -19 -292 -29 -728 -34 -255 -3 -471 -9 -480 -14 -9
-5 -98 -11 -198 -14 -99 -4 -200 -11 -225 -16 -24 -6 -213 -15 -419 -21 -206
-6 -397 -15 -425 -20 -27 -5 -138 -12 -245 -15 -218 -6 -352 -12 -580 -26 -85
-5 -272 -13 -415 -19 -143 -5 -280 -14 -305 -20 -48 -10 -221 -18 -570 -25
-118 -3 -235 -9 -260 -14 -25 -5 -58 -9 -75 -8 -16 1 -57 0 -91 -1 -58 -2 -61
-3 -82 -39 -22 -39 -120 -173 -269 -370 -172 -227 -219 -288 -249 -322 -17
-20 -39 -52 -49 -71 -9 -19 -30 -48 -45 -65 -15 -16 -63 -78 -106 -136 -44
-59 -108 -146 -144 -194 -36 -47 -86 -116 -112 -153 -25 -37 -67 -83 -92 -103
-25 -20 -42 -39 -39 -43 11 -11 75 -6 132 10 31 9 103 31 161 49 58 18 148 44
200 58 52 15 187 52 300 83 113 31 248 67 300 81 52 13 104 28 115 34 19 8 80
26 415 114 69 18 166 45 215 60 144 43 295 84 361 99 34 8 76 18 95 24 130 41
239 72 253 72 8 0 35 6 58 14 24 7 72 21 108 31 36 9 85 23 110 31 109 32 713
199 810 224 38 9 101 27 305 85 72 20 155 43 185 51 30 8 71 19 90 25 19 5 67
19 105 30 39 10 93 26 120 34 28 8 97 27 155 41 136 33 163 40 235 59 133 34
225 60 295 80 25 8 97 28 160 46 63 17 135 37 160 44 25 7 68 19 95 25 28 7
61 19 74 28 28 17 184 64 326 97 153 36 337 84 343 89 2 3 2 12 -1 21 -7 16
-22 17 -77 4z"/>
</g>
</svg>
